HIERARCHY
ROOT Hips
{
	OFFSET 0.0000 0.0000 0.0000
	CHANNELS 6 Xposition Yposition Zposition Zrotation Xrotation Yrotation
	JOINT Ab
	{
		OFFSET -0.0000 8.0846 -0.0000
		CHANNELS 3 Zrotation Xrotation Yrotation
		JOINT Chest
		{
			OFFSET -0.0000 25.0068 -0.0000
			CHANNELS 3 Zrotation Xrotation Yrotation
			JOINT Neck
			{
				OFFSET -0.0000 25.0068 0.0000
				CHANNELS 3 Zrotation Xrotation Yrotation
				JOINT Head
				{
					OFFSET -0.0000 10.7556 0.0000
					CHANNELS 3 Zrotation Xrotation Yrotation
					End Site
					{
						OFFSET -0.0000 16.6222 0.0000
					}
				}
			}
			JOINT LeftCollar
			{
				OFFSET -0.0000 25.0068 0.0000
				CHANNELS 3 Zrotation Xrotation Yrotation
				JOINT LeftShoulder
				{
					OFFSET 19.5556 -0.0000 0.0000
					CHANNELS 3 Zrotation Xrotation Yrotation
					JOINT LeftElbow
					{
						OFFSET 27.1828 0.0000 0.0000
						CHANNELS 3 Zrotation Xrotation Yrotation
						JOINT LeftWrist
						{
							OFFSET 23.3157 0.0000 0.0000
							CHANNELS 3 Zrotation Xrotation Yrotation
							End Site
							{
								OFFSET 0.0000 -14.6667 0.0000
							}
						}
					}
				}
			}
			JOINT RightCollar
			{
				OFFSET -0.0000 25.0068 0.0000
				CHANNELS 3 Zrotation Xrotation Yrotation
				JOINT RightShoulder
				{
					OFFSET -19.5556 0.0000 0.0000
					CHANNELS 3 Zrotation Xrotation Yrotation
					JOINT RightElbow
					{
						OFFSET -27.1828 0.0000 0.0000
						CHANNELS 3 Zrotation Xrotation Yrotation
						JOINT RightWrist
						{
							OFFSET -23.3157 0.0000 0.0000
							CHANNELS 3 Zrotation Xrotation Yrotation
							End Site
							{
								OFFSET -0.0000 -14.6667 0.0000
							}
						}
					}
				}
			}
		}
	}
	JOINT LeftHip
	{
		OFFSET 11.7333 0.0000 0.0000
		CHANNELS 3 Zrotation Xrotation Yrotation
		JOINT LeftKnee
		{
			OFFSET -0.0000 -40.8688 0.0000
			CHANNELS 3 Zrotation Xrotation Yrotation
			JOINT LeftAnkle
			{
				OFFSET -0.0000 -44.4337 0.0000
				CHANNELS 3 Zrotation Xrotation Yrotation
				End Site
				{
					OFFSET -0.0000 -4.8889 16.6222
				}
			}
		}
	}
	JOINT RightHip
	{
		OFFSET -11.7333 0.0000 0.0000
		CHANNELS 3 Zrotation Xrotation Yrotation
		JOINT RightKnee
		{
			OFFSET -0.0000 -40.8688 0.0000
			CHANNELS 3 Zrotation Xrotation Yrotation
			JOINT RightAnkle
			{
				OFFSET -0.0000 -44.4337 0.0000
				CHANNELS 3 Zrotation Xrotation Yrotation
				End Site
				{
					OFFSET -0.0000 -4.8889 16.6222
				}
			}
		}
	}
}
MOTION
Frames: 16
Frame Time: 0.010000
-5.2674 88.6389 186.2578 2.6040 0.0171 173.8100 1.8478 359.4069 358.0270 358.9140 11.7552 358.1304 1.5208 351.3127 2.1027 1.6269 17.2904 1.7412 339.3404 358.5176 8.1026 300.9328 31.0421 354.7070 15.8761 354.5923 322.5735 82.6002 1.2466 341.8379 22.5692 359.2659 356.3150 58.8409 43.7746 8.4961 337.7113 354.2585 28.4821 277.5951 352.1622 16.8398 1.5279 357.5975 357.9446 359.2448 9.6016 357.3874 0.4130 353.8347 21.8938 0.7969 351.0075 0.3001 358.6386 19.9877 8.5133 356.9744 345.6409 337.5618 
-5.2725 88.6394 186.2524 2.5997 0.0145 173.8224 1.8452 359.4319 358.0302 358.9104 11.7146 358.1333 1.5169 351.3324 2.0889 1.6156 17.2904 1.7301 339.3332 358.5230 8.1364 300.9507 31.1213 354.6850 15.8689 354.5760 322.6394 82.6496 1.1784 341.8049 22.5754 359.2754 356.3176 58.8543 43.7672 8.4795 338.0506 354.3608 28.8661 277.1174 353.2568 18.2775 1.5201 357.5861 357.9220 359.2458 9.6168 357.3543 0.4580 353.8072 21.9135 0.7899 351.0073 0.2677 358.6299 19.9939 8.5191 356.9766 345.6309 337.5775 
-5.2784 88.6391 186.2452 2.5901 0.0028 173.8420 1.8312 359.4261 358.0297 358.9239 11.7166 358.1325 1.4936 351.3028 2.0700 1.6225 17.3178 1.7097 339.3378 358.5136 8.0771 300.8908 30.8859 354.7620 15.7545 354.6244 322.5313 82.6886 1.2207 341.6653 22.5678 359.2619 356.3224 58.8837 43.7748 8.4604 337.7047 354.2250 28.4863 277.5819 352.2017 16.8533 1.5069 357.5647 357.9199 359.2480 9.6357 357.3291 0.5123 353.8020 21.9263 0.7767 351.0098 0.2777 358.6328 19.9827 8.5116 356.9390 345.6276 337.5769 
-5.2830 88.6389 186.2345 2.5898 0.0057 173.8595 1.8268 359.4335 358.0259 358.9285 11.7096 358.1265 1.4930 351.3205 2.0731 1.6268 17.3168 1.7145 339.3279 358.5262 8.0993 300.9008 30.9914 354.7594 15.8291 354.6059 322.5710 82.5860 1.1918 341.7295 22.5707 359.2776 356.3446 58.9044 43.7280 8.4317 338.0595 354.3476 28.8917 277.1001 353.3072 18.3927 1.5073 357.5666 357.8675 359.2251 9.6427 357.3546 0.4666 353.7852 21.9416 0.7718 351.0262 0.2737 358.6320 19.9731 8.4935 356.9149 345.6189 337.5746 
-5.2874 88.6386 186.2292 2.5832 359.9839 173.8814 1.8204 359.4279 358.0179 358.9298 11.6888 358.1187 1.4740 351.3380 2.0628 1.6410 17.3126 1.7032 339.3225 358.5127 8.1124 300.8912 30.9965 354.7693 15.8534 354.6052 322.5629 82.6240 1.1718 341.7343 22.5753 359.2574 356.3476 58.9110 43.7390 8.4301 338.0424 354.2940 28.8861 277.1467 353.3165 18.4495 1.5032 357.5269 357.8394 359.2136 9.6736 357.3586 0.4711 353.7697 21.9447 0.7618 351.0196 0.2967 358.6468 19.9654 8.4777 356.9353 345.5794 337.5290 
-5.2917 88.6392 186.2161 2.5796 359.9923 173.8946 1.8101 359.4430 358.0196 358.9318 11.6820 358.1210 1.4418 351.3346 2.0584 1.6856 17.3379 1.6958 339.3079 358.5308 8.1301 300.9066 31.0190 354.7729 15.8268 354.5989 322.5798 82.6596 1.1590 341.7441 22.5787 359.2714 356.3758 58.9313 43.7154 8.3938 338.1409 354.3177 28.9596 276.5574 353.8694 18.6080 1.4975 357.5164 357.7875 359.1698 9.6980 357.4825 0.5688 353.7694 21.9456 0.7560 351.0465 0.3318 358.6575 19.9449 8.4369 356.9423 345.5797 337.5160 
-5.2982 88.6407 186.2087 2.5771 359.9851 173.9107 1.8005 359.4503 358.0279 358.9342 11.6803 358.1287 1.4497 351.3152 2.0446 1.6534 17.3735 1.6835 339.3135 358.5078 8.0815 300.8340 30.8232 354.8608 15.7798 354.5944 322.4610 82.6214 1.1962 341.6136 22.5699 359.2693 356.3829 58.9462 43.7055 8.3928 338.0562 354.2865 28.9032 277.1704 353.3215 18.5349 1.5100 357.5465 357.7833 359.1649 9.6520 357.3273 0.5844 353.8013 22.0280 0.7518 351.0564 0.3380 358.6547 19.9262 8.4320 356.7637 345.5992 337.4819 
-5.3019 88.6424 186.1999 2.5703 359.9772 173.9384 1.7874 359.4638 358.0286 358.9290 11.6557 358.1302 1.4546 351.3187 2.0261 1.6388 17.4026 1.6673 339.3092 358.5343 8.0680 300.8328 30.7082 354.8849 15.6455 354.6480 322.4379 82.6753 1.1906 341.5231 22.5822 359.2575 356.3598 58.9035 43.7301 8.4340 338.2034 354.3267 28.8868 276.4296 353.6667 18.7664 1.4922 357.4855 357.7169 359.1702 9.7584 357.3509 0.4819 353.7182 22.0117 0.7438 351.0598 0.3308 358.6508 19.9252 8.3983 357.2287 345.4957 337.5875 
-5.3099 88.6449 186.1915 2.5627 359.9670 173.9601 1.7795 359.4682 358.0397 358.9165 11.6561 358.1421 1.4697 351.3707 1.9826 1.6208 17.3881 1.6267 339.3128 358.5105 8.0466 300.8042 30.6186 354.9313 15.6193 354.6315 322.3437 82.7072 1.2110 341.4898 22.5925 359.2799 356.3515 58.8476 43.7347 8.4947 338.2698 354.3708 28.8224 276.5023 353.4627 18.7893 1.4905 357.5130 357.7048 359.1465 9.6787 357.3356 0.5801 353.7715 22.0528 0.7261 351.0602 0.3187 358.6538 19.9243 8.4141 357.0863 345.4849 337.5292 
-5.3218 88.6458 186.1844 2.5512 359.9538 173.9766 1.7825 359.4764 358.0408 358.8900 11.6467 358.1458 1.4308 351.3726 1.9526 1.6561 17.4206 1.5952 339.3138 358.5299 8.0332 300.7916 30.5179 354.9664 15.5151 354.6769 322.3216 82.7587 1.1647 341.3963 22.5997 359.2492 356.3466 58.8017 43.8062 8.5315 338.1726 354.3411 28.7594 276.9870 353.0689 18.6868 1.4831 357.4915 357.6667 359.0918 9.6787 357.4140 0.6507 353.7950 22.0818 0.6967 351.0639 0.3416 358.6857 19.9083 8.3316 357.0151 345.4969 337.5053 
-5.3359 88.6471 186.1768 2.5341 359.9273 174.0048 1.7749 359.4650 358.0423 358.8725 11.6419 358.1494 1.4135 351.3575 1.9546 1.6722 17.4688 1.5952 339.3140 358.5185 8.0191 300.7581 30.4643 355.0281 15.5131 354.6475 322.2208 82.7397 1.1862 341.3544 22.6052 359.2673 356.3500 58.7336 43.8401 8.5817 338.3326 354.3833 28.7884 276.3766 353.5849 18.8198 1.4606 357.4405 357.6275 359.1145 9.7395 357.3080 0.6332 353.7460 22.1005 0.6596 351.0504 0.3315 358.6929 19.9572 8.2097 357.2225 345.4024 337.6724 
-5.3527 88.6473 186.1638 2.5168 359.9201 174.0401 1.8006 359.4930 358.0277 358.8011 11.5887 358.1413 1.4085 351.3844 1.9427 1.6482 17.4985 1.5865 339.3072 358.5341 8.0404 300.7729 30.4664 355.0686 15.5069 354.6518 322.1790 82.7078 1.1812 341.4099 22.6442 359.2793 356.3787 58.6839 43.8574 8.5805 338.3024 354.3637 28.7447 276.6050 353.4132 18.5868 1.4332 357.4321 357.6063 359.1148 9.7478 357.2891 0.6568 353.7543 22.0981 0.6161 351.0670 0.3066 358.7112 19.9307 8.1414 357.3730 345.3338 337.7441 
-5.3668 88.6480 186.1502 2.5052 359.9110 174.0643 1.7941 359.5010 358.0437 358.7780 11.5813 358.1608 1.3782 351.3738 1.9327 1.6725 17.5355 1.5755 339.2989 358.5194 8.0520 300.7587 30.4211 355.1188 15.5528 354.6136 322.0156 82.6436 1.2840 341.6046 22.6418 359.2929 356.4379 58.7108 43.8427 8.5453 338.2504 354.3426 28.7231 276.7487 353.3679 18.4769 1.4205 357.4260 357.5872 359.0957 9.7462 357.2639 0.6494 353.7459 22.1304 0.5830 351.0749 0.3028 358.7347 19.9218 8.0927 357.4796 345.1980 337.6605 
-5.3846 88.6487 186.1375 2.4930 359.9064 174.1026 1.7948 359.5248 358.0508 358.7501 11.5612 358.1707 1.3342 351.3754 1.9091 1.7025 17.5649 1.5484 339.2769 358.5383 8.0793 300.7963 30.4937 355.1119 15.5636 354.6222 322.0176 82.6537 1.2283 341.6988 22.6506 359.2843 356.4436 58.6726 43.8791 8.5659 338.2307 354.3613 28.7032 276.7796 353.3607 18.4504 1.4004 357.4172 357.5438 359.0862 9.7572 357.2476 0.6145 353.7291 22.1455 0.5484 351.0910 0.2814 358.7394 19.8864 8.1577 358.5327 344.4992 337.1563 
-5.4038 88.6501 186.1234 2.4735 359.8881 174.1395 1.7668 359.5349 358.0896 358.7348 11.5495 358.2113 1.3536 351.3592 1.8890 1.6758 17.5957 1.5297 339.2641 358.5130 8.0990 300.8035 30.5415 355.1450 15.6291 354.5836 321.9161 82.6304 1.2169 341.7855 22.6799 359.2802 356.3893 58.5389 43.8388 8.6818 338.3479 354.4059 28.6830 276.7666 353.3496 18.5723 1.3742 357.3889 357.5324 359.0740 9.7728 357.2365 0.6558 353.7148 22.1359 0.5101 351.0839 0.2567 358.6802 19.7643 8.7332 358.4622 344.4915 336.6179 
-5.4235 88.6514 186.1070 2.4573 359.8753 174.1891 1.7389 359.5389 358.1031 358.7386 11.5418 358.2233 1.3176 351.3712 1.8467 1.6956 17.6140 1.4854 339.2428 358.4922 8.1627 300.8506 30.8611 355.1293 15.8107 354.4871 321.8779 82.6091 1.3148 342.2264 22.6906 359.2702 356.3709 58.4864 43.7595 8.7119 338.4041 354.4256 28.6932 276.8510 353.3557 18.7055 1.3525 357.3523 357.5595 359.0721 9.8239 357.1308 0.7455 353.7000 22.1619 0.4727 351.0893 0.2272 358.6994 19.7859 8.5750 358.5603 344.4177 336.7265 
